<?xml version="1.0" encoding="utf-8"?>
<!-- Generator: Adobe Illustrator 23.0.1, SVG Export Plug-In . SVG Version: 6.00 Build 0)  -->
<svg version="1.1" id="Layer_1" xmlns="http://www.w3.org/2000/svg" xmlns:xlink="http://www.w3.org/1999/xlink" x="0px" y="0px"
	 viewBox="-294 386.7 21.2 21.3" style="enable-background:new -294 386.7 21.2 21.3;" xml:space="preserve">
<g>
	<path d="M-283.79,396.91c-0.03,0.04-0.06,0.09-0.09,0.13c-0.11,0.16-0.23,0.31-0.34,0.47l0,0.01l0,0
		c-2.03,2.82-4.05,5.63-6.08,8.45c-0.05,0.07-0.1,0.13-0.14,0.2c-0.23,0.39,0,0.85,0.45,0.89c0.08,0.01,0.16,0,0.24,0
		c4.24,0,8.48,0,12.71,0c0.62,0,0.77-0.15,0.77-0.78c0-3.05,0-6.1,0-9.15c0-0.11,0-0.21,0-0.33c0,0,0,0,0,0v-1.15c0,0,0,0,0,0
		c0-0.14,0-0.24,0-0.34c0-2.29,0-4.59,0-6.88c0-0.09,0.01-0.18-0.01-0.27c-0.05-0.42-0.51-0.64-0.86-0.4
		c-0.11,0.07-0.2,0.18-0.28,0.28c-1.65,2.28-3.3,4.57-4.94,6.85L-283.79,396.91z M-281.16,396.15c0.28,0.15,0.52,0.12,0.7-0.1
		c0.18-0.22,0.19-0.51-0.02-0.73c-0.13-0.14-0.29-0.25-0.46-0.39c0.17-0.24,0.33-0.48,0.49-0.72c0.71,0.44,0.93,0.47,1.15,0.15
		c0.22-0.31,0.12-0.55-0.45-1.03c0.16-0.23,0.32-0.46,0.49-0.71c0.14,0.09,0.27,0.17,0.41,0.25c0.23,0.13,0.45,0.09,0.63-0.09
		c0.19-0.19,0.21-0.43,0.08-0.66c-0.02-0.03-0.04-0.06-0.06-0.09c-0.36-0.51-0.36-0.51,0.01-1.01c0.24-0.32,0.47-0.64,0.75-1.01
		c0,5.34,0,10.61,0,15.89c-3.79,0-7.56,0-11.4,0c0.42-0.58,0.82-1.12,1.24-1.69c0.22,0.15,0.43,0.3,0.64,0.44
		c0.3,0.2,0.67,0.15,0.85-0.12c0.19-0.27,0.11-0.63-0.2-0.83c-0.21-0.14-0.42-0.26-0.66-0.41c0.17-0.25,0.34-0.49,0.51-0.74
		c0.23,0.15,0.43,0.29,0.64,0.43c0.32,0.2,0.59,0.17,0.78-0.08c0.2-0.26,0.14-0.59-0.14-0.83c-0.1-0.08-0.2-0.15-0.3-0.22
		c-0.09-0.07-0.18-0.14-0.29-0.21c0.17-0.25,0.33-0.48,0.51-0.74c0.21,0.13,0.41,0.26,0.61,0.38c0.31,0.18,0.57,0.15,0.76-0.1
		c0.18-0.25,0.14-0.57-0.11-0.79c-0.17-0.14-0.36-0.26-0.56-0.41c0.17-0.25,0.34-0.48,0.51-0.73c0.2,0.14,0.38,0.27,0.57,0.39
		c0.27,0.17,0.53,0.14,0.72-0.08c0.19-0.22,0.2-0.51-0.01-0.73c-0.16-0.17-0.37-0.3-0.57-0.46c0.17-0.24,0.33-0.48,0.5-0.72
		c0.18,0.12,0.33,0.22,0.49,0.32c0.31,0.19,0.59,0.15,0.77-0.11c0.19-0.28,0.15-0.74-0.09-0.93c-0.15-0.11-0.31-0.21-0.48-0.32
		c0.17-0.24,0.33-0.48,0.5-0.73C-281.48,395.96-281.32,396.06-281.16,396.15z"/>
	<path d="M-278.85,400.52c0,1.09,0,2.18,0,3.26c0,0.55-0.19,0.73-0.74,0.73c-1.41,0-2.82,0-4.23,0c-0.28,0-0.52-0.07-0.66-0.32
		c-0.14-0.25-0.05-0.49,0.11-0.72c1.49-2.22,2.97-4.45,4.45-6.67c0.18-0.27,0.39-0.36,0.65-0.3c0.25,0.06,0.42,0.28,0.42,0.61
		c0.01,0.65,0,1.3,0,1.95C-278.85,399.55-278.85,400.04-278.85,400.52z M-282.89,403.34c0.99,0,1.93,0,2.87,0c0-1.44,0-2.85,0-4.33
		C-280.99,400.48-281.93,401.9-282.89,403.34z"/>
</g>
</svg>
