<?xml version="1.0" encoding="utf-8"?>
<!-- Generator: Adobe Illustrator 23.0.1, SVG Export Plug-In . SVG Version: 6.00 Build 0)  -->
<svg version="1.1" id="Layer_1" xmlns="http://www.w3.org/2000/svg" xmlns:xlink="http://www.w3.org/1999/xlink" x="0px" y="0px"
	 viewBox="-294 386.7 21.2 21.3" style="enable-background:new -294 386.7 21.2 21.3;" xml:space="preserve">
<g>
	<path d="M-275.46,402.45c-0.08,0.1-0.19,0.36-0.38,0.43c-0.2,0.08-0.52,0.06-0.7-0.05c-0.26-0.15-0.5-0.39-0.64-0.66
		c-0.1-0.19-0.12-0.52-0.02-0.7c0.09-0.17,0.37-0.31,0.58-0.33C-276.19,401.1-275.44,401.89-275.46,402.45z"/>
	<path d="M-279.03,398.65c0.41,0.01,1.18,0.76,1.13,1.17c-0.02,0.21-0.16,0.48-0.34,0.58c-0.17,0.1-0.51,0.11-0.67,0
		c-0.29-0.19-0.56-0.47-0.75-0.77C-279.92,399.2-279.54,398.63-279.03,398.65z"/>
	<path d="M-280.3,400.47c0,0.12,0.01,0.24,0,0.36c-0.03,0.39-0.31,0.67-0.67,0.68c-0.36,0.01-0.66-0.26-0.7-0.65
		c-0.02-0.23-0.02-0.46-0.01-0.69c0.02-0.44,0.31-0.74,0.7-0.74c0.39,0,0.66,0.3,0.68,0.75
		C-280.29,400.28-280.3,400.38-280.3,400.47C-280.3,400.47-280.3,400.47-280.3,400.47z"/>
	<path d="M-284.65,401.66c-0.01,0.57-0.74,1.36-1.14,1.31c-0.22-0.03-0.51-0.18-0.61-0.37c-0.1-0.18-0.06-0.51,0.05-0.7
		c0.14-0.25,0.37-0.49,0.61-0.63c0.19-0.11,0.51-0.14,0.7-0.06C-284.84,401.3-284.73,401.57-284.65,401.66z"/>
	<path d="M-282.24,399.34c0,0.42-0.71,1.19-1.13,1.16c-0.21-0.02-0.49-0.15-0.6-0.31c-0.11-0.17-0.13-0.5-0.03-0.67
		c0.19-0.3,0.46-0.58,0.75-0.77C-282.8,398.46-282.24,398.82-282.24,399.34z"/>
	<path d="M-280.3,403.95c0,0.08,0,0.16,0,0.24c-0.01,0.48-0.28,0.77-0.7,0.76c-0.4-0.01-0.66-0.29-0.68-0.74
		c-0.01-0.2-0.01-0.4,0-0.61c0.03-0.44,0.32-0.72,0.72-0.7c0.39,0.02,0.63,0.28,0.65,0.72C-280.29,403.74-280.3,403.85-280.3,403.95
		z"/>
	<path d="M-291.34,407.01h1.4c-0.01-0.09-0.02-0.17-0.02-0.24c0-4.56-0.02-9.12,0.01-13.68c0.01-2.03,1.51-3.65,3.58-3.97
		c1.9-0.29,3.81,0.88,4.45,2.73c0.08,0.23,0.12,0.48,0.18,0.72c-0.31,0.1-0.57,0.18-0.82,0.28c-1.71,0.7-2.61,2.21-2.58,4.31
		c0.01,0.67,0.24,0.9,0.91,0.9c2.01,0,4.02,0,6.03,0c1.29,0,1.39-0.1,1.36-1.38c-0.04-1.96-1.3-3.56-3.19-4.03
		c-0.24-0.06-0.32-0.16-0.37-0.39c-0.45-2.24-1.79-3.68-3.96-4.37c-0.27-0.08-0.55-0.14-0.82-0.2c-0.43,0-0.86,0-1.3,0
		c-0.74,0.27-1.55,0.43-2.21,0.83c-1.77,1.07-2.66,2.7-2.67,4.78c0,4.4,0,8.8,0,13.2C-291.34,406.65-291.34,406.8-291.34,407.01z
		 M-278.25,396.66c-1.81,0-3.63,0-5.44,0c-0.13-1.4,1.16-2.72,2.66-2.74C-279.48,393.9-278.15,395.2-278.25,396.66z"/>
</g>
</svg>
