<?xml version="1.0" encoding="utf-8"?>
<!-- Generator: Adobe Illustrator 23.0.1, SVG Export Plug-In . SVG Version: 6.00 Build 0)  -->
<svg version="1.1" id="Layer_1" xmlns="http://www.w3.org/2000/svg" xmlns:xlink="http://www.w3.org/1999/xlink" x="0px" y="0px"
	 viewBox="-294 386.7 21.2 21.3" style="enable-background:new -294 386.7 21.2 21.3;" xml:space="preserve">
<g>
	<path d="M-292.9,405.29c0-1.32,0-2.65,0-3.97c0.01-0.03,0.03-0.07,0.03-0.1c0.1-0.89,0.42-1.68,0.93-2.41
		c0.07-0.1,0.11-0.23,0.11-0.35c0.01-2.57,0-5.13,0.01-7.7c0-0.39,0.13-0.57,0.48-0.67c2.28-0.64,4.61-1.01,6.98-1.08
		c2.97-0.09,5.9,0.26,8.76,1.06c0.43,0.12,0.54,0.27,0.54,0.71c0,2.54,0,5.08,0,7.63c0,0.09,0.03,0.2,0.08,0.27
		c0.7,0.92,1.06,1.96,1.06,3.12c0,1.09,0,2.18,0,3.27c0,0.39-0.22,0.64-0.56,0.64c-0.34,0-0.55-0.25-0.55-0.65c0-0.16,0-0.33,0-0.49
		c-5.61,0-11.18,0-16.78,0c0,0.15,0,0.28,0,0.41c0,0.42-0.13,0.63-0.43,0.71C-292.49,405.76-292.7,405.63-292.9,405.29z
		 M-282.86,396.75c0.01-0.03,0.01-0.05,0.01-0.06c0-0.64,0-1.27,0-1.91c0-0.81,0.55-1.36,1.36-1.36c0.95,0,1.89,0,2.84,0
		c0.81,0,1.36,0.56,1.37,1.36c0,0.62,0.02,1.24-0.01,1.85c-0.01,0.3,0.07,0.45,0.36,0.54c0.26,0.08,0.5,0.25,0.77,0.38
		c0-0.08,0-0.15,0-0.22c0-2.01,0-4.02,0.01-6.03c0-0.19-0.05-0.26-0.23-0.31c-1.9-0.48-3.84-0.78-5.8-0.86
		c-2.83-0.12-5.61,0.17-8.36,0.89c-0.13,0.03-0.16,0.09-0.16,0.22c0,2.07,0,4.14,0,6.21c0,0.05,0.01,0.09,0.01,0.12
		c0.35-0.17,0.68-0.34,1.03-0.49c0.11-0.05,0.14-0.1,0.14-0.22c-0.01-0.71-0.01-1.42,0-2.13c0-0.76,0.57-1.32,1.33-1.32
		c0.97,0,1.94,0,2.91,0c0.76,0,1.32,0.57,1.33,1.33c0,0.6,0,1.2,0,1.8c0,0.07,0,0.13,0,0.2
		C-283.58,396.75-283.22,396.75-282.86,396.75z M-275.06,401.2c0-0.04,0-0.07-0.01-0.1c-0.29-1.81-1.91-3.22-3.76-3.23
		c-3.04-0.01-6.09-0.01-9.13,0c-1.1,0.01-2.03,0.44-2.78,1.24c-0.55,0.58-0.88,1.27-1,2.08C-286.18,401.2-280.62,401.2-275.06,401.2
		z M-275.02,402.33c-5.6,0-11.18,0-16.75,0c0,0.38,0,0.74,0,1.09c5.59,0,11.17,0,16.75,0C-275.02,403.06-275.02,402.7-275.02,402.33
		z M-285.07,396.76c0-0.69,0-1.34,0-2c0-0.18-0.1-0.23-0.26-0.23c-0.94,0-1.88,0-2.82,0c-0.2,0-0.26,0.06-0.26,0.27
		c0,0.54,0,1.09,0,1.63c0,0.12,0,0.23,0,0.33C-287.29,396.76-286.19,396.76-285.07,396.76z M-281.73,396.76c1.12,0,2.22,0,3.32,0
		c0,0,0.01-0.01,0.01-0.02c0-0.67,0-1.34,0-2c0-0.13-0.08-0.21-0.21-0.21c-0.97,0-1.94,0-2.91,0c-0.13,0-0.21,0.06-0.21,0.2
		C-281.73,395.4-281.73,396.06-281.73,396.76z"/>
</g>
</svg>
