<?xml version="1.0" encoding="utf-8"?>
<!-- Generator: Adobe Illustrator 23.0.1, SVG Export Plug-In . SVG Version: 6.00 Build 0)  -->
<svg version="1.1" id="Layer_1" xmlns="http://www.w3.org/2000/svg" xmlns:xlink="http://www.w3.org/1999/xlink" x="0px" y="0px"
	 viewBox="-294 386.7 21.2 21.3" style="enable-background:new -294 386.7 21.2 21.3;" xml:space="preserve">
<g>
	<path d="M-287.76,390.97c0.55-0.42,1.05-0.8,1.55-1.18c0.82-0.62,1.64-1.25,2.45-1.87c0.28-0.21,0.43-0.21,0.71,0
		c2.99,2.28,5.98,4.56,8.97,6.83c0.19,0.14,0.27,0.31,0.27,0.54c-0.01,0.65,0,1.31,0,1.96c0,0.37-0.17,0.54-0.54,0.54
		c-0.39,0-0.79,0-1.21,0c0,0.43,0,0.84,0,1.25c0,0.05,0.05,0.11,0.1,0.14c1.2,1,1.76,2.28,1.61,3.84c-0.11,1.17-0.65,2.14-1.55,2.89
		c-0.13,0.11-0.19,0.21-0.17,0.38c0.01,0.08,0.01,0.16,0,0.24c-0.03,0.2-0.14,0.34-0.34,0.38c-0.07,0.01-0.13,0.02-0.2,0.02
		c-4.86,0-9.73,0-14.59,0c-0.12,0-0.26-0.03-0.37-0.09c-0.17-0.1-0.19-0.28-0.19-0.47c0-2.6,0-5.2,0-7.81c0-0.26,0-0.51,0-0.79
		c-0.4,0-0.78,0-1.16,0c-0.44,0-0.59-0.15-0.59-0.59c0-0.63,0-1.27,0-1.9c0-0.24,0.08-0.41,0.28-0.55c0.45-0.33,0.89-0.68,1.34-1.01
		c0.11-0.08,0.14-0.16,0.14-0.29c0-1.7,0-3.41,0-5.11c0-0.43,0.15-0.58,0.57-0.58c0.78,0,1.57,0,2.35,0c0.42,0,0.56,0.15,0.56,0.57
		c0,0.79,0,1.58,0,2.37C-287.76,390.77-287.76,390.84-287.76,390.97z M-292.11,396.91c0.39,0,0.75,0,1.11,0
		c0.5,0,0.62,0.12,0.62,0.63c0,2.75,0,5.5,0,8.25c0,0.09,0,0.17,0,0.26c1.18,0,2.33,0,3.49,0c0-0.1,0-0.19,0-0.28
		c0-2.77,0-5.53,0-8.3c0-0.42,0.14-0.57,0.56-0.57c1.95,0,3.9,0,5.84,0c0.42,0,0.56,0.15,0.56,0.57c0,0.36,0,0.72,0,1.11
		c1.17-0.48,2.33-0.48,3.49,0c0-0.32,0-0.61,0-0.9c0-0.7,0.07-0.77,0.77-0.77c0.32,0,0.63,0,0.97,0c0-0.45-0.01-0.86,0-1.27
		c0.01-0.18-0.05-0.29-0.2-0.41c-2.79-2.12-5.58-4.24-8.37-6.37c-0.12-0.09-0.2-0.09-0.31,0c-1.18,0.91-2.37,1.81-3.56,2.71
		c-1.61,1.23-3.23,2.46-4.84,3.69c-0.06,0.05-0.15,0.13-0.15,0.19C-292.12,395.93-292.11,396.41-292.11,396.91z M-280.83,406.06
		c-0.01-0.03-0.02-0.04-0.02-0.04c-0.04-0.04-0.08-0.07-0.12-0.11c-1.11-0.98-1.64-2.2-1.53-3.68c0.09-1.23,0.65-2.23,1.59-3.02
		c0.05-0.04,0.13-0.1,0.13-0.15c0.01-0.42,0.01-0.84,0.01-1.26c-1.75,0-3.48,0-5.22,0c0,2.76,0,5.5,0,8.26
		C-284.28,406.06-282.57,406.06-280.83,406.06z M-278.17,406.06c1.93,0,3.48-1.55,3.49-3.47c0.01-1.93-1.54-3.48-3.47-3.49
		c-1.93-0.01-3.5,1.55-3.5,3.48C-281.65,404.51-280.1,406.06-278.17,406.06z M-290.36,388.65c0,1.43,0,2.85,0,4.31
		c0.57-0.44,1.12-0.85,1.66-1.27c0.05-0.04,0.07-0.14,0.07-0.21c0-0.76,0-1.52,0-2.28c0-0.18,0-0.35,0-0.54
		C-289.22,388.65-289.79,388.65-290.36,388.65z"/>
	<path d="M-283.41,391.25c0.96,0,1.74,0.76,1.75,1.72c0.01,0.96-0.78,1.76-1.75,1.76c-0.95,0-1.74-0.78-1.75-1.74
		C-285.15,392.04-284.37,391.26-283.41,391.25z M-284.27,392.98c0,0.48,0.38,0.88,0.86,0.88c0.48,0.01,0.87-0.38,0.88-0.86
		c0-0.48-0.38-0.88-0.86-0.88C-283.87,392.12-284.26,392.5-284.27,392.98z"/>
	<path d="M-279.48,403.61c0-0.38,0.16-0.57,0.41-0.58c0.27-0.01,0.43,0.15,0.46,0.46c0.03,0.34,0.4,0.52,0.69,0.35
		c0.26-0.16,0.24-0.5-0.05-0.66c-0.32-0.17-0.66-0.32-0.97-0.52c-0.46-0.29-0.64-0.78-0.5-1.31c0.1-0.37,0.32-0.64,0.67-0.81
		c0.1-0.05,0.16-0.09,0.18-0.21c0.04-0.25,0.18-0.36,0.42-0.36c0.24,0,0.38,0.11,0.42,0.36c0.02,0.12,0.08,0.17,0.18,0.21
		c0.47,0.24,0.7,0.63,0.71,1.15c0,0.26-0.17,0.44-0.41,0.45c-0.25,0.01-0.43-0.15-0.46-0.42c-0.04-0.34-0.21-0.49-0.52-0.45
		c-0.17,0.02-0.29,0.11-0.34,0.28c-0.04,0.17,0.01,0.3,0.15,0.39c0.11,0.07,0.22,0.13,0.34,0.19c0.22,0.12,0.46,0.21,0.67,0.35
		c0.41,0.26,0.6,0.64,0.56,1.12c-0.04,0.47-0.28,0.82-0.71,1.02c-0.1,0.05-0.15,0.1-0.18,0.22c-0.04,0.24-0.19,0.35-0.43,0.35
		c-0.23,0-0.37-0.11-0.41-0.34c-0.02-0.12-0.08-0.18-0.19-0.23C-279.22,404.4-279.46,404.03-279.48,403.61z"/>
</g>
</svg>
