<?xml version="1.0" encoding="utf-8"?>
<!-- Generator: Adobe Illustrator 23.0.1, SVG Export Plug-In . SVG Version: 6.00 Build 0)  -->
<svg version="1.1" id="Layer_1" xmlns="http://www.w3.org/2000/svg" xmlns:xlink="http://www.w3.org/1999/xlink" x="0px" y="0px"
	 viewBox="-294 386.7 21.2 21.3" style="enable-background:new -294 386.7 21.2 21.3;" xml:space="preserve">
<g>
	<path d="M-273.9,399.58c-0.04,0.33-0.06,0.66-0.11,0.99c-0.08,0.52-0.19,1.04-0.28,1.57c-0.03,0.17-0.12,0.29-0.3,0.35
		c-0.05,0.02-0.09,0.1-0.09,0.16c-0.01,0.36,0.01,0.72-0.02,1.07c-0.06,0.68-0.46,1.11-1.13,1.14c-0.86,0.03-1.72,0.02-2.58-0.01
		c-0.54-0.02-0.98-0.51-1.02-1.05c-0.01-0.2,0-0.41,0-0.61c-0.76,0.21-1.52,0.09-2.27,0.1c-1.61,0.02-3.21,0.01-4.82,0
		c-0.27,0-0.54-0.04-0.84-0.07c0,0.09,0,0.23,0,0.36c0,0.8-0.49,1.29-1.3,1.29c-0.72,0-1.43,0-2.15,0c-0.8,0-1.29-0.5-1.3-1.3
		c0-0.31,0-0.62,0-0.93c0-0.1-0.01-0.16-0.13-0.18c-0.17-0.04-0.25-0.18-0.27-0.34c-0.12-0.76-0.26-1.52-0.35-2.29
		c-0.08-0.69-0.07-1.38,0.06-2.07c0.18-0.94,0.61-1.71,1.46-2.21c0.08-0.05,0.13-0.14,0.17-0.23c0.59-1.22,1.16-2.45,1.75-3.68
		c0.1-0.22,0.24-0.41,0.36-0.62c0.24-0.42,0.65-0.58,1.07-0.71c0.8-0.26,1.64-0.36,2.48-0.42c1.4-0.09,2.8-0.1,4.21,0
		c0.97,0.07,1.94,0.18,2.86,0.56c0.31,0.13,0.57,0.33,0.72,0.63c0.52,1.02,1.04,2.05,1.55,3.07c0.19,0.39,0.36,0.8,0.54,1.2
		c0.04,0.08,0.1,0.16,0.17,0.2c0.9,0.54,1.32,1.37,1.47,2.37c0.03,0.19,0.05,0.38,0.08,0.57
		C-273.9,398.86-273.9,399.22-273.9,399.58z M-274.81,397.75c-0.11-0.51-0.33-0.92-0.7-1.25c-0.45-0.41-1-0.59-1.58-0.71
		c-1.15-0.24-2.33-0.32-3.5-0.36c-2.28-0.08-4.56-0.09-6.84,0.07c-0.95,0.07-1.9,0.16-2.81,0.43c-0.52,0.15-0.96,0.43-1.29,0.85
		c-0.22,0.28-0.36,0.6-0.43,0.97c0.43,0,0.84,0,1.25,0c0.51,0.01,0.96,0.19,1.32,0.55c0.64,0.63,1.27,1.26,1.9,1.9
		c0.07,0.07,0.13,0.17,0.14,0.27c0.04,0.26-0.15,0.44-0.46,0.44c-1.3,0-2.6,0-3.89,0c-0.06,0-0.13,0-0.19,0c0,0.04-0.01,0.05,0,0.06
		c0.02,0.15,0.05,0.29,0.08,0.44c0.05,0.29,0.06,0.29,0.35,0.29c0.93,0,1.87,0,2.8,0.01c0.16,0,0.33,0.05,0.48,0.11
		c0.41,0.19,0.82,0.41,1.23,0.61c0.09,0.04,0.19,0.07,0.28,0.07c2.21,0,4.43,0,6.64,0c0.09,0,0.2-0.03,0.28-0.07
		c0.41-0.2,0.81-0.41,1.23-0.61c0.15-0.07,0.32-0.11,0.48-0.11c0.61-0.01,1.21,0,1.82-0.01c0.38,0,0.75,0,1.13-0.01
		c0.05,0,0.14-0.04,0.15-0.08c0.05-0.22,0.09-0.45,0.13-0.7c-0.09,0-0.16,0-0.23,0c-1.25,0-2.51,0-3.76,0c-0.05,0-0.1,0-0.15,0
		c-0.18,0-0.33-0.07-0.4-0.24c-0.08-0.18-0.02-0.34,0.11-0.47c0.59-0.59,1.19-1.18,1.78-1.79c0.44-0.45,0.97-0.69,1.61-0.67
		C-275.55,397.76-275.2,397.75-274.81,397.75z M-276.61,395.08c-0.57-1.23-1.09-2.43-1.76-3.56c-0.08-0.14-0.24-0.27-0.4-0.34
		c-0.7-0.31-1.46-0.43-2.22-0.46c-1.27-0.06-2.54-0.08-3.82-0.07c-0.88,0.01-1.75,0.1-2.61,0.32c-0.47,0.12-0.91,0.27-1.15,0.77
		c-0.51,1.1-1.05,2.18-1.58,3.27c-0.01,0.02,0,0.04-0.01,0.07c2.23-0.47,4.49-0.48,6.74-0.48
		C-281.14,394.59-278.88,394.6-276.61,395.08z M-291.31,402.5c0,0.4-0.01,0.78,0,1.15c0,0.27,0.15,0.42,0.43,0.42
		c0.77,0.01,1.53,0.01,2.3,0c0.28,0,0.43-0.16,0.43-0.44c0-0.26,0.01-0.52,0-0.78c0-0.06-0.05-0.13-0.1-0.16
		c-0.23-0.15-0.47-0.2-0.75-0.2C-289.76,402.51-290.52,402.5-291.31,402.5z M-275.49,402.5c-0.78,0-1.54,0.01-2.3-0.01
		c-0.28-0.01-0.52,0.05-0.75,0.2c-0.05,0.03-0.1,0.11-0.1,0.17c-0.01,0.25-0.01,0.49,0,0.74c0,0.33,0.15,0.47,0.48,0.48
		c0.37,0,0.74,0,1.11,0c0.38,0,0.77,0,1.15,0c0.24,0,0.41-0.13,0.42-0.34C-275.48,403.33-275.49,402.93-275.49,402.5z
		 M-288.76,400.11c-0.42-0.43-0.82-0.86-1.24-1.27c-0.23-0.22-0.52-0.31-0.83-0.31c-0.37,0-0.74,0-1.11,0
		c-0.05,0-0.09,0.01-0.17,0.02c0.02,0.53,0.04,1.04,0.06,1.56C-290.93,400.11-289.84,400.11-288.76,400.11z M-278.09,400.11
		c1.15,0,2.24,0,3.36,0c0-0.53,0-1.04,0-1.56c-0.47,0-0.93-0.02-1.39,0.01c-0.2,0.01-0.43,0.09-0.58,0.22
		C-277.17,399.19-277.6,399.64-278.09,400.11z"/>
	<path d="M-283.4,397.75c1.38,0,2.77,0,4.15,0c0.06,0,0.12,0,0.19,0c0.17,0,0.3,0.07,0.37,0.23c0.08,0.16,0.04,0.3-0.06,0.43
		c-0.29,0.35-0.58,0.69-0.86,1.04c-0.35,0.42-0.7,0.83-1.04,1.25c-0.12,0.15-0.26,0.21-0.45,0.21c-1.53,0-3.05,0-4.58,0
		c-0.18,0-0.32-0.06-0.43-0.2c-0.62-0.75-1.24-1.49-1.86-2.24c-0.13-0.15-0.21-0.31-0.11-0.51c0.09-0.19,0.26-0.22,0.45-0.22
		C-286.23,397.75-284.82,397.75-283.4,397.75z M-279.9,398.55c-2.34,0-4.65,0-6.99,0c0.43,0.51,0.84,1.01,1.25,1.5
		c0.04,0.04,0.12,0.07,0.18,0.07c1.38,0,2.76,0,4.13,0c0.06,0,0.13-0.02,0.16-0.06C-280.75,399.57-280.33,399.07-279.9,398.55z"/>
</g>
</svg>
