<?xml version="1.0" encoding="utf-8"?>
<!-- Generator: Adobe Illustrator 23.0.1, SVG Export Plug-In . SVG Version: 6.00 Build 0)  -->
<svg version="1.1" id="Layer_1" xmlns="http://www.w3.org/2000/svg" xmlns:xlink="http://www.w3.org/1999/xlink" x="0px" y="0px"
	 viewBox="-294 386.7 21.2 21.3" style="enable-background:new -294 386.7 21.2 21.3;" xml:space="preserve">
<g>
	<path d="M-275.56,406.43c0.29,0,0.56,0,0.84,0c0.24,0,0.39,0.12,0.39,0.31c0,0.19-0.14,0.31-0.38,0.31c-5.79,0-11.58,0-17.37,0
		c-0.24,0-0.38-0.13-0.38-0.32c0.01-0.19,0.14-0.3,0.37-0.3c0.28,0,0.55,0,0.85,0c0-0.09,0.01-0.16,0.01-0.24c0-3.84,0-7.67,0-11.51
		c0-0.14-0.03-0.22-0.16-0.29c-0.38-0.21-0.54-0.63-0.44-1.05c0.1-0.41,0.47-0.7,0.92-0.7c2.1,0,4.2,0,6.31,0c0.28,0,0.57,0,0.88,0
		c0-0.07,0-0.13,0-0.19c0-0.94,0-1.88,0-2.81c0-0.13-0.04-0.19-0.15-0.25c-0.38-0.21-0.56-0.64-0.45-1.04
		c0.11-0.42,0.46-0.71,0.89-0.71c2.52,0,5.03,0,7.55,0c0.43,0,0.79,0.3,0.89,0.7c0.1,0.42-0.07,0.84-0.44,1.04
		c-0.12,0.07-0.15,0.15-0.15,0.27c0,5.52,0,11.04,0,16.55C-275.57,406.28-275.57,406.35-275.56,406.43z M-276.22,406.42
		c0-5.63,0-11.26,0-16.89c-2.29,0-4.57,0-6.86,0c0,5.63,0,11.26,0,16.89c0.62,0,1.23,0,1.87,0c0-0.08,0-0.15,0-0.22
		c0-0.63,0-1.25,0-1.88c0-0.28,0.11-0.39,0.39-0.4c0.79,0,1.58,0,2.37,0c0.27,0,0.37,0.12,0.38,0.38c0,0.63,0,1.27,0,1.9
		c0,0.07,0,0.14,0,0.21C-277.44,406.42-276.83,406.42-276.22,406.42z M-283.72,406.42c0-3.97,0-7.92,0-11.88c-2.29,0-4.57,0-6.86,0
		c0,3.97,0,7.92,0,11.88c0.63,0,1.24,0,1.87,0c0-0.08,0-0.15,0-0.22c0-0.62,0-1.24,0-1.86c0-0.31,0.1-0.42,0.42-0.42
		c0.76,0,1.53,0,2.29,0c0.31,0,0.42,0.11,0.42,0.42c0,0.62,0,1.24,0,1.86c0,0.07,0.01,0.14,0.01,0.21
		C-284.96,406.42-284.35,406.42-283.72,406.42z M-279.63,388.89c1.23,0,2.46,0,3.69,0c0.23,0,0.36-0.12,0.36-0.31
		c0-0.19-0.13-0.3-0.35-0.31c-0.04,0-0.08,0-0.12,0c-2.39,0-4.79,0-7.18,0c-0.07,0-0.14-0.01-0.21,0.01
		c-0.24,0.05-0.35,0.34-0.17,0.51c0.07,0.07,0.21,0.1,0.31,0.1C-282.08,388.9-280.86,388.89-279.63,388.89z M-283.72,393.28
		c-0.07,0-0.13,0-0.18,0c-2.3,0-4.59,0-6.89,0c-0.06,0-0.13,0-0.19,0.02c-0.15,0.04-0.23,0.14-0.23,0.3c0,0.15,0.08,0.25,0.21,0.29
		c0.07,0.02,0.15,0.02,0.23,0.02c2.28,0,4.55,0,6.83,0c0.07,0,0.14,0,0.22,0C-283.72,393.69-283.72,393.5-283.72,393.28z
		 M-288.09,404.56c0,0.63,0,1.24,0,1.86c0.62,0,1.23,0,1.85,0c0-0.63,0-1.24,0-1.86C-286.86,404.56-287.47,404.56-288.09,404.56z
		 M-280.57,406.42c0.63,0,1.24,0,1.86,0c0-0.62,0-1.24,0-1.85c-0.62,0-1.24,0-1.86,0C-280.57,405.19-280.57,405.8-280.57,406.42z"/>
	<path d="M-281.21,398.29c0.19,0,0.39,0,0.58,0c0.23,0.01,0.35,0.12,0.36,0.35c0.01,0.39,0.01,0.79,0,1.18
		c0,0.23-0.12,0.35-0.35,0.35c-0.39,0.01-0.79,0.01-1.18,0c-0.23,0-0.34-0.12-0.35-0.36c-0.01-0.39-0.01-0.78,0-1.16
		c0-0.24,0.12-0.35,0.36-0.36c0.01,0,0.01,0,0.02,0C-281.58,398.29-281.39,398.29-281.21,398.29z M-281.51,398.92
		c0,0.21,0,0.4,0,0.6c0.21,0,0.4,0,0.6,0c0-0.21,0-0.41,0-0.6C-281.12,398.92-281.31,398.92-281.51,398.92z"/>
	<path d="M-281.22,395.16c-0.19,0-0.39,0.01-0.58,0c-0.23-0.01-0.34-0.12-0.35-0.35c-0.01-0.39-0.01-0.78,0-1.16
		c0-0.24,0.12-0.36,0.36-0.36c0.39,0,0.78,0,1.16,0c0.23,0,0.35,0.12,0.36,0.35c0.01,0.39,0.01,0.79,0,1.18
		c0,0.23-0.12,0.34-0.35,0.35C-280.82,395.16-281.02,395.16-281.22,395.16z M-280.91,394.52c0-0.22,0-0.41,0-0.61
		c-0.21,0-0.4,0-0.6,0c0,0.21,0,0.4,0,0.61C-281.3,394.52-281.11,394.52-280.91,394.52z"/>
	<path d="M-277.14,394.24c0,0.19,0,0.39,0,0.58c-0.01,0.21-0.11,0.33-0.32,0.33c-0.41,0.01-0.81,0.01-1.22,0
		c-0.21,0-0.32-0.12-0.32-0.33c0-0.4,0-0.8,0-1.2c0-0.22,0.12-0.34,0.34-0.34c0.4-0.01,0.8-0.01,1.2,0c0.22,0,0.33,0.12,0.33,0.34
		C-277.14,393.83-277.14,394.04-277.14,394.24z M-277.78,394.52c0-0.21,0-0.41,0-0.61c-0.21,0-0.4,0-0.6,0c0,0.21,0,0.41,0,0.61
		C-278.17,394.52-277.98,394.52-277.78,394.52z"/>
	<path d="M-279.01,399.23c0-0.2,0-0.4,0-0.6c0-0.22,0.12-0.34,0.34-0.34c0.4-0.01,0.8-0.01,1.2,0c0.22,0,0.33,0.12,0.33,0.34
		c0,0.4,0,0.8,0,1.2c0,0.21-0.11,0.33-0.32,0.33c-0.41,0.01-0.81,0.01-1.22,0c-0.22-0.01-0.32-0.13-0.33-0.35
		C-279.02,399.62-279.01,399.43-279.01,399.23z M-278.38,398.92c0,0.21,0,0.41,0,0.61c0.21,0,0.4,0,0.6,0c0-0.21,0-0.4,0-0.61
		C-277.99,398.92-278.18,398.92-278.38,398.92z"/>
	<path d="M-281.21,392.65c-0.2,0-0.4,0-0.6,0c-0.21-0.01-0.33-0.12-0.34-0.32c-0.01-0.41-0.01-0.81,0-1.22
		c0-0.21,0.12-0.32,0.33-0.33c0.41-0.01,0.81-0.01,1.22,0c0.2,0,0.32,0.11,0.32,0.31c0.01,0.41,0.01,0.83,0,1.24
		c0,0.21-0.13,0.31-0.34,0.32c-0.01,0-0.01,0-0.02,0C-280.82,392.65-281.02,392.65-281.21,392.65z M-280.9,391.42
		c-0.21,0-0.41,0-0.61,0c0,0.21,0,0.4,0,0.6c0.21,0,0.4,0,0.61,0C-280.9,391.81-280.9,391.62-280.9,391.42z"/>
	<path d="M-281.22,397.66c-0.19,0-0.39,0-0.58,0c-0.22-0.01-0.34-0.12-0.34-0.34c-0.01-0.4-0.01-0.8,0-1.2
		c0-0.22,0.12-0.33,0.34-0.33c0.4,0,0.8,0,1.2,0c0.21,0,0.33,0.11,0.33,0.32c0.01,0.41,0.01,0.81,0,1.22c0,0.21-0.13,0.32-0.35,0.32
		C-280.82,397.66-281.02,397.66-281.22,397.66z M-281.51,397.03c0.21,0,0.4,0,0.61,0c0-0.2,0-0.4,0-0.6c-0.21,0-0.4,0-0.61,0
		C-281.51,396.63-281.51,396.82-281.51,397.03z"/>
	<path d="M-281.22,402.67c-0.19,0-0.39,0-0.58,0c-0.22,0-0.34-0.12-0.35-0.33c-0.01-0.41-0.01-0.81,0-1.22
		c0-0.21,0.13-0.32,0.34-0.32c0.4,0,0.8,0,1.2,0c0.21,0,0.33,0.11,0.34,0.32c0.01,0.41,0.01,0.81,0,1.22c0,0.22-0.13,0.33-0.35,0.33
		C-280.82,402.67-281.02,402.67-281.22,402.67z M-281.51,401.43c0,0.21,0,0.41,0,0.61c0.21,0,0.4,0,0.6,0c0-0.2,0-0.4,0-0.61
		C-281.11,401.43-281.3,401.43-281.51,401.43z"/>
	<path d="M-277.14,391.74c0,0.19,0,0.37,0,0.56c-0.01,0.23-0.11,0.35-0.34,0.35c-0.39,0-0.79,0-1.18,0c-0.23,0-0.34-0.12-0.35-0.35
		c0-0.39,0-0.79,0-1.18c0-0.22,0.11-0.34,0.33-0.34c0.4,0,0.8,0,1.2,0c0.22,0,0.33,0.11,0.33,0.34
		C-277.14,391.33-277.14,391.53-277.14,391.74z M-277.78,392.02c0-0.21,0-0.41,0-0.6c-0.21,0-0.41,0-0.6,0c0,0.21,0,0.4,0,0.6
		C-278.18,392.02-277.99,392.02-277.78,392.02z"/>
	<path d="M-277.14,401.74c0,0.19,0,0.39,0,0.58c-0.01,0.23-0.11,0.35-0.35,0.35c-0.39,0-0.79,0-1.18,0c-0.23,0-0.34-0.12-0.34-0.35
		c0-0.39,0-0.79,0-1.18c0-0.22,0.12-0.33,0.34-0.34c0.4,0,0.8,0,1.2,0c0.22,0,0.33,0.11,0.33,0.34
		C-277.14,401.34-277.14,401.54-277.14,401.74z M-278.38,402.03c0.21,0,0.41,0,0.6,0c0-0.21,0-0.41,0-0.6c-0.21,0-0.4,0-0.6,0
		C-278.38,401.64-278.38,401.83-278.38,402.03z"/>
	<path d="M-277.14,396.73c0,0.19,0,0.39,0,0.58c-0.01,0.23-0.11,0.35-0.34,0.35c-0.39,0-0.79,0-1.18,0c-0.23,0-0.34-0.12-0.35-0.35
		c0-0.39,0-0.79,0-1.18c0-0.22,0.11-0.34,0.33-0.34c0.4-0.01,0.8-0.01,1.2,0c0.22,0,0.33,0.11,0.33,0.34
		C-277.14,396.33-277.14,396.53-277.14,396.73z M-278.38,397.03c0.21,0,0.41,0,0.6,0c0-0.21,0-0.4,0-0.6c-0.21,0-0.4,0-0.6,0
		C-278.38,396.63-278.38,396.83-278.38,397.03z"/>
	<path d="M-285.58,398.29c0.19,0,0.38,0,0.56,0c0.24,0,0.36,0.12,0.37,0.36c0.01,0.39,0.01,0.78,0,1.16c0,0.24-0.12,0.36-0.36,0.36
		c-0.39,0.01-0.78,0.01-1.16,0c-0.24,0-0.35-0.12-0.36-0.36c-0.01-0.38,0-0.76,0-1.14c0-0.25,0.12-0.37,0.37-0.37
		C-285.97,398.28-285.77,398.29-285.58,398.29z M-285.89,399.54c0.18,0,0.34,0,0.51,0c0.04,0,0.1-0.05,0.1-0.08
		c0.01-0.18,0-0.35,0-0.53c-0.22,0-0.41,0-0.61,0C-285.89,399.13-285.89,399.32-285.89,399.54z"/>
	<path d="M-289.66,399.21c0-0.19,0-0.39,0-0.58c0.01-0.22,0.11-0.34,0.33-0.34c0.4-0.01,0.8-0.01,1.2,0c0.22,0,0.33,0.13,0.34,0.34
		c0,0.4,0,0.8,0,1.2c0,0.2-0.11,0.33-0.31,0.33c-0.42,0.01-0.84,0.01-1.26,0c-0.2-0.01-0.3-0.13-0.3-0.33
		C-289.66,399.63-289.66,399.42-289.66,399.21z M-289.02,398.92c0,0.21,0,0.4,0,0.6c0.21,0,0.4,0,0.6,0c0-0.21,0-0.41,0-0.6
		C-288.63,398.92-288.82,398.92-289.02,398.92z"/>
	<path d="M-285.61,397.66c-0.19,0-0.39,0-0.58,0c-0.21-0.01-0.33-0.12-0.34-0.32c-0.01-0.41-0.01-0.81,0-1.22
		c0-0.22,0.13-0.32,0.35-0.33c0.39,0,0.79,0,1.18,0c0.23,0,0.34,0.12,0.35,0.35c0.01,0.39,0.01,0.78,0,1.16
		c0,0.24-0.12,0.35-0.36,0.36C-285.21,397.66-285.41,397.66-285.61,397.66z M-285.89,396.42c0,0.22,0,0.41,0,0.61
		c0.21,0,0.4,0,0.6,0c0-0.21,0-0.4,0-0.61C-285.49,396.42-285.69,396.42-285.89,396.42z"/>
	<path d="M-285.57,400.8c0.19,0,0.39,0,0.58,0c0.21,0,0.34,0.11,0.34,0.32c0.01,0.41,0.01,0.83,0,1.24c0,0.2-0.13,0.31-0.32,0.31
		c-0.41,0.01-0.81,0.01-1.22,0c-0.21,0-0.33-0.12-0.33-0.33c-0.01-0.41-0.01-0.81,0-1.22c0-0.21,0.12-0.32,0.33-0.32
		C-285.99,400.79-285.78,400.8-285.57,400.8z M-285.29,401.43c-0.21,0-0.41,0-0.61,0c0,0.21,0,0.4,0,0.6c0.21,0,0.4,0,0.61,0
		C-285.29,401.83-285.29,401.64-285.29,401.43z"/>
	<path d="M-287.78,396.74c0,0.19,0,0.37,0,0.56c0,0.24-0.11,0.36-0.35,0.36c-0.39,0-0.79,0-1.18,0c-0.22,0-0.33-0.12-0.34-0.34
		c0-0.4,0-0.8,0-1.2c0-0.21,0.11-0.33,0.32-0.33c0.41-0.01,0.81-0.01,1.22,0c0.22,0,0.33,0.12,0.33,0.34
		C-287.78,396.33-287.78,396.54-287.78,396.74z M-288.42,396.43c-0.21,0-0.41,0-0.61,0c0,0.21,0,0.4,0,0.6c0.21,0,0.4,0,0.61,0
		C-288.42,396.82-288.42,396.63-288.42,396.43z"/>
	<path d="M-288.72,400.8c0.2,0,0.4,0,0.6,0c0.22,0.01,0.33,0.12,0.33,0.34c0,0.39,0,0.79,0,1.18c0,0.23-0.12,0.35-0.35,0.35
		c-0.39,0-0.79,0-1.18,0c-0.22,0-0.34-0.11-0.34-0.33c-0.01-0.4,0-0.8,0-1.2c0-0.22,0.11-0.33,0.33-0.34
		C-289.12,400.8-288.92,400.8-288.72,400.8z M-289.02,401.43c0,0.21,0,0.41,0,0.61c0.21,0,0.4,0,0.6,0c0-0.21,0-0.4,0-0.61
		C-288.62,401.43-288.81,401.43-289.02,401.43z"/>
</g>
</svg>
