<?xml version="1.0" encoding="utf-8"?>
<!-- Generator: Adobe Illustrator 23.0.1, SVG Export Plug-In . SVG Version: 6.00 Build 0)  -->
<svg version="1.1" id="Layer_1" xmlns="http://www.w3.org/2000/svg" xmlns:xlink="http://www.w3.org/1999/xlink" x="0px" y="0px"
	 viewBox="-294 386.7 21.2 21.3" style="enable-background:new -294 386.7 21.2 21.3;" xml:space="preserve">
<g>
	<path d="M-292.95,395.67c0.14-0.16,0.26-0.35,0.42-0.48c2.87-2.39,5.75-4.78,8.63-7.17c0.36-0.3,0.64-0.3,1,0
		c1.37,1.14,2.74,2.28,4.12,3.41c0.04,0.03,0.08,0.07,0.16,0.12c0-0.39,0-0.75,0-1.1c0-0.51,0.24-0.75,0.76-0.75
		c0.44,0,0.88,0,1.32,0c0.55,0,0.79,0.23,0.79,0.78c0,1.09,0,2.19,0,3.28c0,0.13,0.04,0.22,0.14,0.3c0.48,0.39,0.96,0.79,1.44,1.19
		c0.42,0.35,0.45,0.69,0.09,1.1c-0.2,0.23-0.4,0.46-0.61,0.68c-0.34,0.39-0.59,0.43-1.05,0.16c0,0.09,0,0.15,0,0.22
		c0,2.88,0,5.77,0,8.65c0,0.39-0.12,0.67-0.49,0.83c-4.77,0-9.55,0-14.32,0c-0.37-0.16-0.49-0.44-0.49-0.83
		c0.01-2.88,0.01-5.76,0.01-8.65c0-0.07,0-0.14,0-0.22c-0.48,0.27-0.71,0.22-1.06-0.17c-0.12-0.13-0.25-0.26-0.36-0.4
		c-0.17-0.21-0.32-0.43-0.49-0.65C-292.95,395.87-292.95,395.77-292.95,395.67z M-276.4,406.25c0-0.09,0-0.17,0-0.25
		c0-3.04,0-6.08,0-9.12c0-0.18-0.05-0.29-0.19-0.41c-2.23-1.84-4.45-3.69-6.67-5.53c-0.11-0.09-0.18-0.1-0.29,0
		c-2.24,1.86-4.48,3.72-6.73,5.58c-0.09,0.08-0.14,0.16-0.14,0.28c0,3.08,0,6.17,0,9.25c0,0.07,0,0.13,0,0.19
		C-285.72,406.25-281.07,406.25-276.4,406.25z M-291.52,396.73c0.04-0.04,0.07-0.06,0.1-0.08c2.57-2.13,5.14-4.26,7.71-6.39
		c0.25-0.21,0.36-0.21,0.6-0.01c2.29,1.9,4.57,3.79,6.86,5.69c0.32,0.26,0.64,0.53,0.97,0.8c0.27-0.3,0.53-0.6,0.8-0.9
		c-2.97-2.47-5.93-4.93-8.91-7.4c-2.97,2.47-5.94,4.93-8.91,7.39C-292.04,396.14-291.79,396.43-291.52,396.73z M-277.99,390.36
		c0,0.57,0,1.13,0,1.68c0,0.05,0.06,0.1,0.1,0.14c0.44,0.37,0.89,0.74,1.33,1.11c0.04,0.03,0.09,0.06,0.14,0.11
		c0-1.03,0-2.03,0-3.04C-276.93,390.36-277.45,390.36-277.99,390.36z"/>
	<path d="M-284.38,394.99c-0.43-0.7-0.37-1.37,0.17-1.81c0.48-0.4,1.2-0.38,1.66,0.04c0.42,0.38,0.63,1.1,0.12,1.77
		c0.15,0.21,0.3,0.42,0.44,0.63c0.68,0.96,1.35,1.92,2.03,2.88c0.07,0.1,0.14,0.15,0.27,0.17c0.67,0.11,1.33,0.23,2,0.35
		c0.55,0.1,0.88,0.55,0.78,1.1c-0.22,1.32-0.46,2.64-0.69,3.96c-0.02,0.13-0.04,0.27-0.07,0.4c-0.12,0.57-0.58,0.9-1.15,0.8
		c-2.13-0.37-4.27-0.75-6.4-1.13c-1.29-0.23-2.58-0.45-3.87-0.68c-0.57-0.1-0.9-0.55-0.8-1.12c0.22-1.32,0.46-2.63,0.69-3.94
		c0.02-0.12,0.04-0.24,0.06-0.37c0.11-0.6,0.56-0.93,1.16-0.83c0.51,0.08,1.03,0.17,1.54,0.28c0.2,0.04,0.32,0.01,0.44-0.17
		c0.5-0.73,1.01-1.45,1.52-2.17C-284.45,395.09-284.41,395.04-284.38,394.99z M-288.11,397.83c-0.24-0.01-0.36,0.09-0.39,0.28
		c-0.25,1.42-0.5,2.85-0.75,4.27c-0.05,0.3,0.04,0.42,0.35,0.48c0.66,0.12,1.32,0.23,1.98,0.35c1.99,0.35,3.99,0.7,5.98,1.05
		c0.73,0.13,1.47,0.26,2.2,0.39c0.26,0.05,0.41-0.05,0.46-0.28c0.25-1.42,0.5-2.84,0.75-4.25c0.05-0.31-0.03-0.43-0.34-0.48
		c-0.79-0.14-1.59-0.28-2.38-0.42c-2.15-0.38-4.29-0.76-6.44-1.13C-287.19,398-287.67,397.91-288.11,397.83z M-280.78,398.48
		c-0.01-0.04-0.02-0.06-0.03-0.07c-0.69-0.98-1.39-1.97-2.09-2.95c-0.03-0.04-0.12-0.06-0.18-0.06c-0.21,0-0.42,0.03-0.62,0
		c-0.12-0.02-0.19-0.01-0.26,0.1c-0.47,0.68-0.95,1.35-1.42,2.03c-0.03,0.04-0.05,0.08-0.08,0.13
		C-283.89,397.93-282.34,398.2-280.78,398.48z M-282.77,394.17c0-0.36-0.28-0.63-0.64-0.63c-0.35,0-0.63,0.28-0.63,0.62
		c0,0.35,0.28,0.64,0.63,0.65C-283.06,394.81-282.77,394.52-282.77,394.17z"/>
	<path d="M-286.58,400.91c0.1,0.33,0.21,0.66,0.28,0.99c0.02,0.09-0.03,0.25-0.1,0.31c-0.07,0.06-0.23,0.08-0.32,0.05
		c-0.08-0.03-0.16-0.14-0.19-0.23c-0.1-0.3-0.2-0.6-0.27-0.91c-0.04-0.18-0.13-0.27-0.31-0.27c-0.05,0-0.11-0.02-0.19-0.04
		c-0.05,0.29-0.11,0.58-0.16,0.87c-0.02,0.14-0.08,0.26-0.23,0.31c-0.22,0.08-0.44-0.1-0.4-0.36c0.05-0.39,0.13-0.78,0.2-1.17
		c0.07-0.4,0.14-0.81,0.21-1.21c0.06-0.33,0.18-0.42,0.52-0.36c0.24,0.04,0.48,0.09,0.72,0.13c0.5,0.08,0.81,0.38,0.88,0.82
		c0.07,0.41-0.15,0.79-0.59,1.02C-286.55,400.88-286.56,400.89-286.58,400.91z M-287.46,399.56c-0.04,0.21-0.07,0.41-0.11,0.62
		c0.22,0.04,0.43,0.08,0.65,0.11c0.18,0.02,0.32-0.1,0.35-0.26c0.03-0.16-0.08-0.32-0.25-0.36
		C-287.04,399.63-287.24,399.6-287.46,399.56z"/>
	<path d="M-282.33,401.6c-0.05,0.25-0.09,0.51-0.14,0.76c-0.02,0.11-0.03,0.22-0.06,0.33c-0.05,0.19-0.19,0.29-0.37,0.26
		c-0.17-0.03-0.28-0.17-0.25-0.37c0.07-0.47,0.16-0.94,0.24-1.41c0.06-0.34,0.12-0.67,0.18-1.01c0.04-0.22,0.14-0.33,0.31-0.34
		c0.17-0.01,0.29,0.09,0.35,0.3c0.13,0.43,0.26,0.86,0.42,1.29c0.06-0.35,0.13-0.7,0.19-1.05c0.04-0.24,0.19-0.36,0.39-0.32
		c0.19,0.04,0.28,0.2,0.23,0.44c-0.14,0.77-0.27,1.54-0.41,2.31c-0.01,0.03-0.02,0.06-0.02,0.09c-0.03,0.17-0.12,0.29-0.3,0.3
		c-0.19,0.01-0.29-0.1-0.34-0.28c-0.11-0.37-0.22-0.75-0.33-1.12c-0.02-0.06-0.04-0.12-0.06-0.17
		C-282.31,401.6-282.32,401.6-282.33,401.6z"/>
	<path d="M-284.64,400.06c-0.04,0.22-0.07,0.41-0.11,0.62c0.26,0.05,0.51,0.09,0.76,0.14c0.06,0.01,0.12,0.02,0.18,0.04
		c0.18,0.05,0.28,0.2,0.25,0.36c-0.03,0.18-0.19,0.29-0.37,0.26c-0.3-0.05-0.6-0.1-0.93-0.16c-0.04,0.2-0.07,0.4-0.12,0.62
		c0.28,0.05,0.55,0.1,0.83,0.15c0.04,0.01,0.07,0.01,0.11,0.02c0.19,0.05,0.29,0.19,0.27,0.36c-0.02,0.17-0.17,0.29-0.37,0.26
		c-0.34-0.05-0.67-0.11-1.01-0.17c-0.53-0.1-0.56-0.15-0.47-0.68c0.13-0.71,0.25-1.43,0.38-2.14c0.05-0.31,0.17-0.39,0.47-0.34
		c0.37,0.07,0.75,0.13,1.12,0.2c0.23,0.04,0.35,0.19,0.31,0.38c-0.03,0.19-0.19,0.28-0.41,0.25
		C-284.04,400.17-284.33,400.12-284.64,400.06z"/>
	<path d="M-279,401.06c-0.1,0.56-0.2,1.11-0.29,1.65c-0.03,0.16-0.05,0.32-0.08,0.48c-0.04,0.23-0.19,0.35-0.38,0.32
		c-0.18-0.03-0.29-0.18-0.25-0.41c0.11-0.68,0.24-1.36,0.36-2.04c0.01-0.03,0.01-0.06,0.02-0.11c-0.16-0.03-0.32-0.06-0.47-0.09
		c-0.06-0.01-0.12-0.02-0.18-0.04c-0.17-0.05-0.26-0.2-0.23-0.35c0.03-0.17,0.18-0.29,0.35-0.26c0.64,0.11,1.27,0.22,1.91,0.34
		c0.18,0.03,0.28,0.19,0.26,0.35c-0.03,0.17-0.17,0.29-0.37,0.26C-278.58,401.13-278.78,401.09-279,401.06z"/>
</g>
</svg>
