<?xml version="1.0" encoding="utf-8"?>
<!-- Generator: Adobe Illustrator 23.0.1, SVG Export Plug-In . SVG Version: 6.00 Build 0)  -->
<svg version="1.1" id="Layer_1" xmlns="http://www.w3.org/2000/svg" xmlns:xlink="http://www.w3.org/1999/xlink" x="0px" y="0px"
	 viewBox="-294 386.7 21.2 21.3" style="enable-background:new -294 386.7 21.2 21.3;" xml:space="preserve">
<path d="M-274.27,405.13c-1.57-1.57-3.14-3.14-4.71-4.7c-0.18-0.18-0.22-0.28-0.05-0.51c1.17-1.65,1.63-3.5,1.36-5.51
	c-0.58-4.27-4.62-7.19-8.92-6.45c-3.63,0.62-6.32,3.82-6.32,7.36c-0.01,0.68,0.06,1.22,0.17,1.73c1.17,5.43,7.43,7.86,11.95,4.65
	c0.22-0.16,0.31-0.12,0.48,0.05c1.55,1.56,3.1,3.11,4.65,4.66c0.09,0.09,0.17,0.18,0.27,0.25c0.52,0.4,1.23,0.19,1.45-0.42
	C-273.77,405.78-273.96,405.44-274.27,405.13z M-285.24,401.25c-3.15,0.03-5.79-2.59-5.8-5.76c-0.01-3.16,2.6-5.77,5.78-5.78
	c3.17-0.01,5.78,2.6,5.78,5.78C-279.49,398.65-282.06,401.23-285.24,401.25z"/>
</svg>
